<svg id="svg" version="1.1" xmlns="http://www.w3.org/2000/svg" xmlns:xlink="http://www.w3.org/1999/xlink" width="400" height="515.068493150685" viewBox="0, 0, 400,515.068493150685"><g id="svgg"><path id="path0" d="M224.600 114.919 C 223.280 115.382,221.962 115.995,221.671 116.281 C 221.381 116.566,220.962 116.800,220.741 116.800 C 219.804 116.800,215.372 120.723,210.756 125.637 C 201.900 135.063,200.485 136.308,199.827 135.244 C 199.706 135.049,199.111 134.772,198.504 134.631 C 197.897 134.489,196.860 134.126,196.200 133.825 C 194.751 133.163,191.329 132.402,188.600 132.134 L 186.600 131.938 186.600 286.269 L 186.600 440.600 176.533 440.707 C 168.592 440.791,166.226 440.938,165.333 441.404 C 164.345 441.919,164.309 441.995,165.051 441.998 C 165.519 441.999,166.549 442.270,167.338 442.600 C 168.128 442.930,169.731 443.200,170.900 443.200 C 172.069 443.200,174.010 443.472,175.213 443.804 C 180.773 445.340,212.005 445.496,214.797 444.002 C 215.261 443.753,216.937 443.446,218.520 443.320 C 220.104 443.193,221.886 442.844,222.480 442.545 C 223.074 442.245,224.064 441.999,224.680 441.998 C 225.296 441.996,226.319 441.724,226.953 441.394 C 227.587 441.063,228.847 440.678,229.753 440.537 C 230.659 440.397,231.755 440.038,232.189 439.741 C 232.623 439.443,233.348 439.200,233.800 439.200 C 234.252 439.200,235.033 438.912,235.536 438.560 C 236.729 437.724,238.808 437.686,240.471 438.468 C 245.202 440.691,248.211 441.588,252.753 442.127 C 260.462 443.042,286.086 442.516,290.298 441.356 C 291.451 441.039,293.791 440.618,295.498 440.422 C 298.845 440.036,301.495 439.422,303.400 438.591 C 304.060 438.302,305.140 437.956,305.800 437.820 C 306.460 437.684,307.540 437.320,308.200 437.012 C 308.860 436.703,309.670 436.349,310.000 436.224 C 310.330 436.099,311.500 435.469,312.600 434.825 C 313.700 434.180,314.915 433.641,315.300 433.627 C 315.685 433.612,316.000 433.434,316.000 433.231 C 316.000 433.028,316.618 432.658,317.374 432.409 C 318.130 432.159,318.805 431.830,318.874 431.678 C 318.943 431.525,320.040 430.860,321.312 430.200 C 322.583 429.540,324.111 428.744,324.708 428.432 C 325.305 428.119,326.033 427.624,326.325 427.332 C 326.618 427.039,327.204 426.800,327.629 426.800 C 328.053 426.800,328.400 426.616,328.400 426.390 C 328.400 426.165,328.876 425.799,329.458 425.578 C 332.122 424.565,339.436 418.243,341.808 414.902 C 343.791 412.109,346.400 406.638,346.400 405.272 C 346.400 404.848,346.670 403.735,347.000 402.800 C 347.330 401.865,347.600 399.766,347.600 398.137 C 347.600 396.408,347.350 394.576,347.000 393.738 C 346.670 392.949,346.400 391.953,346.400 391.525 C 346.400 390.717,344.837 386.749,344.381 386.400 C 344.237 386.290,343.888 385.761,343.606 385.225 C 342.678 383.465,336.352 376.800,335.610 376.800 C 335.416 376.800,335.019 376.575,334.729 376.300 C 333.885 375.502,328.419 372.958,325.800 372.145 C 322.440 371.102,310.435 371.083,308.600 372.118 C 307.940 372.490,307.081 372.796,306.692 372.798 C 305.709 372.801,302.989 374.580,301.469 376.213 C 299.367 378.473,299.232 378.684,298.767 380.475 C 297.293 386.148,298.692 390.468,303.119 393.916 C 305.696 395.923,311.470 397.170,312.663 395.977 C 313.977 394.663,319.651 395.083,321.304 396.616 C 324.139 399.245,320.804 403.694,313.670 406.798 C 313.158 407.021,312.470 407.472,312.141 407.802 C 311.812 408.131,311.196 408.400,310.771 408.400 C 310.347 408.400,310.000 408.566,310.000 408.769 C 310.000 408.972,309.382 409.342,308.626 409.591 C 307.870 409.841,307.195 410.177,307.126 410.339 C 306.913 410.836,297.942 415.200,297.133 415.200 C 296.714 415.200,295.973 415.449,295.486 415.754 C 294.999 416.058,293.340 416.427,291.800 416.573 C 290.260 416.720,288.280 417.078,287.400 417.369 C 286.369 417.709,282.351 417.996,276.100 418.175 C 264.798 418.499,265.249 418.722,268.300 414.312 C 269.345 412.801,270.387 411.232,270.616 410.825 C 270.844 410.418,271.287 409.777,271.600 409.400 C 272.557 408.247,275.200 403.162,275.200 402.474 C 275.200 402.267,275.470 401.874,275.800 401.600 C 276.130 401.326,276.400 400.786,276.400 400.400 C 276.400 400.014,276.651 399.490,276.958 399.235 C 277.265 398.980,277.630 398.166,277.769 397.426 C 277.908 396.686,278.286 395.860,278.611 395.591 C 278.935 395.322,279.203 394.809,279.206 394.451 C 279.209 394.093,279.884 393.048,280.706 392.128 C 283.859 388.601,284.490 387.796,285.186 386.420 C 286.999 382.832,287.046 382.657,288.464 374.200 C 288.933 371.406,288.572 357.815,287.984 356.122 C 287.770 355.505,287.421 353.110,287.209 350.800 C 286.997 348.490,286.639 345.655,286.412 344.500 C 286.185 343.345,285.814 341.455,285.586 340.300 C 285.358 339.145,284.992 337.210,284.773 336.000 C 284.554 334.790,284.111 333.233,283.788 332.540 C 283.464 331.846,283.194 330.856,283.187 330.340 C 283.180 329.823,282.910 329.051,282.587 328.624 C 282.264 328.196,282.000 327.600,282.000 327.299 C 282.000 326.675,280.337 323.196,279.181 321.400 C 278.756 320.740,278.185 319.750,277.913 319.200 C 277.640 318.650,277.188 318.056,276.908 317.880 C 276.629 317.704,276.400 317.299,276.400 316.980 C 276.400 316.661,276.259 316.400,276.086 316.400 C 275.914 316.400,275.479 315.903,275.120 315.295 C 274.331 313.960,266.143 305.600,265.624 305.600 C 265.422 305.600,265.019 305.371,264.729 305.092 C 263.515 303.925,260.493 301.600,260.190 301.600 C 260.010 301.600,259.579 301.350,259.231 301.045 C 258.621 300.508,257.107 299.653,251.889 296.899 C 249.037 295.394,247.605 293.909,247.587 292.438 C 247.580 291.867,247.310 291.051,246.987 290.624 C 246.664 290.196,246.400 289.474,246.400 289.018 C 246.400 288.561,246.040 287.516,245.600 286.696 C 244.668 284.957,244.602 282.853,245.407 280.600 C 245.722 279.720,246.100 277.920,246.248 276.600 C 246.396 275.280,246.760 273.502,247.058 272.650 C 247.356 271.797,247.600 270.406,247.600 269.558 C 247.600 268.710,247.856 267.338,248.168 266.508 C 248.480 265.679,248.845 263.920,248.979 262.600 C 249.112 261.280,249.478 259.480,249.793 258.600 C 250.108 257.720,250.374 256.190,250.385 255.200 C 250.396 254.210,250.644 252.941,250.937 252.380 C 251.230 251.819,251.586 250.199,251.728 248.780 C 251.870 247.361,252.252 245.480,252.576 244.600 C 253.283 242.678,253.413 229.281,252.752 226.400 C 252.525 225.410,252.114 223.250,251.840 221.600 C 251.566 219.950,251.129 218.207,250.871 217.726 C 250.612 217.246,250.400 216.382,250.400 215.806 C 250.400 215.231,250.135 214.248,249.811 213.622 C 249.488 212.996,249.099 211.711,248.948 210.766 C 248.797 209.821,248.433 208.587,248.139 208.024 C 247.845 207.461,247.604 206.455,247.602 205.789 C 247.601 205.123,247.357 204.223,247.059 203.789 C 246.762 203.355,246.396 202.212,246.246 201.249 C 246.097 200.286,245.710 199.121,245.387 198.660 C 245.064 198.199,244.800 197.446,244.800 196.987 C 244.800 196.528,244.536 195.804,244.213 195.376 C 243.890 194.949,243.614 194.240,243.599 193.800 C 243.585 193.360,243.225 192.280,242.800 191.400 C 242.375 190.520,242.015 189.440,242.001 189.000 C 241.986 188.560,241.710 187.851,241.387 187.424 C 241.064 186.996,240.800 186.321,240.800 185.922 C 240.800 185.523,240.440 184.525,240.000 183.704 C 239.560 182.884,239.200 181.978,239.200 181.692 C 239.200 181.406,238.885 180.691,238.500 180.103 C 237.691 178.868,237.652 162.506,238.452 159.420 C 238.682 158.529,239.107 156.000,239.396 153.800 C 239.684 151.600,240.137 148.990,240.403 148.000 C 241.580 143.617,240.156 122.562,238.561 120.769 C 238.253 120.421,238.000 119.948,238.000 119.717 C 238.000 119.372,236.399 117.843,234.200 116.087 C 232.005 114.335,227.742 113.816,224.600 114.919 M167.315 131.896 C 168.588 131.976,170.568 131.975,171.715 131.894 C 172.862 131.814,171.820 131.749,169.400 131.750 C 166.980 131.751,166.042 131.816,167.315 131.896 M182.700 131.882 C 183.195 131.978,184.005 131.978,184.500 131.882 C 184.995 131.787,184.590 131.709,183.600 131.709 C 182.610 131.709,182.205 131.787,182.700 131.882 " stroke="none" fill="#8b0404" fill-rule="evenodd"></path><path id="path1" d="M115.688 117.654 C 113.616 118.606,110.200 121.821,109.796 123.200 C 109.634 123.750,109.328 124.418,109.116 124.684 C 107.871 126.241,108.048 136.089,109.366 138.600 C 109.712 139.260,110.002 140.160,110.010 140.600 C 110.019 141.040,110.290 141.749,110.613 142.176 C 110.936 142.604,111.200 143.328,111.200 143.787 C 111.200 144.246,111.447 144.977,111.749 145.411 C 112.051 145.845,112.434 146.830,112.600 147.600 C 112.766 148.370,113.149 149.355,113.451 149.789 C 113.753 150.223,114.000 150.994,114.000 151.503 C 114.000 152.012,114.252 152.827,114.561 153.314 C 114.869 153.801,115.252 154.830,115.412 155.600 C 115.572 156.370,115.949 157.355,116.251 157.789 C 117.304 159.302,116.926 164.292,115.583 166.600 C 114.943 167.700,114.151 169.140,113.822 169.800 C 113.493 170.460,112.588 172.080,111.810 173.400 C 111.032 174.720,110.199 176.295,109.959 176.900 C 109.718 177.505,109.374 178.000,109.193 178.000 C 109.012 178.000,108.736 178.585,108.581 179.300 C 108.425 180.015,108.051 180.955,107.749 181.389 C 107.447 181.823,107.199 182.453,107.198 182.789 C 107.196 183.125,106.924 183.919,106.594 184.553 C 106.263 185.187,105.887 186.447,105.758 187.353 C 105.630 188.259,105.284 189.720,104.990 190.600 C 104.697 191.480,104.356 193.820,104.234 195.800 C 104.112 197.780,103.845 199.975,103.641 200.678 C 103.436 201.381,103.142 205.251,102.989 209.278 C 102.835 213.305,102.459 217.583,102.154 218.784 C 101.849 219.985,101.600 221.882,101.600 223.000 C 101.600 224.118,101.330 226.069,101.000 227.335 C 100.597 228.884,100.400 231.592,100.400 235.600 C 100.400 239.608,100.597 242.316,101.000 243.865 C 101.330 245.131,101.603 247.165,101.607 248.384 C 101.611 249.603,101.881 251.860,102.207 253.400 C 102.875 256.553,102.990 260.000,102.427 260.000 C 102.222 260.000,101.927 260.405,101.772 260.900 C 101.433 261.982,100.843 262.755,97.596 266.373 C 94.062 270.311,90.220 277.081,89.235 281.109 C 89.035 281.929,88.689 283.140,88.468 283.800 C 87.649 286.237,87.124 288.699,86.591 292.600 C 86.291 294.800,85.859 297.770,85.631 299.200 C 85.123 302.381,85.113 319.000,85.616 323.400 C 85.817 325.160,86.254 329.030,86.587 332.000 C 87.294 338.308,88.084 343.229,88.707 345.200 C 88.950 345.970,89.329 347.410,89.549 348.400 C 90.294 351.749,90.896 353.796,91.449 354.862 C 91.752 355.446,92.000 356.162,92.000 356.454 C 92.000 356.954,93.052 359.842,94.260 362.660 C 94.557 363.354,94.800 364.096,94.800 364.310 C 94.800 364.826,97.221 370.534,98.061 372.000 C 98.250 372.330,98.506 372.870,98.628 373.200 C 99.309 375.030,104.527 385.635,105.812 387.800 C 106.334 388.680,106.873 389.670,107.010 390.000 C 107.146 390.330,107.426 390.870,107.632 391.200 C 107.837 391.530,108.226 392.250,108.495 392.800 C 108.764 393.350,109.111 393.894,109.267 394.008 C 109.423 394.123,109.741 394.663,109.974 395.208 C 110.479 396.390,110.865 397.002,113.107 400.180 C 114.046 401.511,115.032 403.050,115.299 403.600 C 115.565 404.150,116.012 404.744,116.292 404.920 C 116.571 405.096,116.800 405.427,116.800 405.657 C 116.800 405.886,117.115 406.486,117.500 406.991 C 117.885 407.495,118.470 408.313,118.800 408.809 C 119.758 410.250,122.470 413.742,123.164 414.430 C 123.514 414.777,124.610 416.023,125.600 417.200 C 128.922 421.148,130.192 422.583,131.613 423.996 C 134.635 426.998,137.499 429.527,139.800 431.224 C 141.120 432.198,142.290 433.100,142.400 433.227 C 142.510 433.354,142.870 433.589,143.200 433.748 C 143.530 433.908,144.520 434.466,145.400 434.989 C 148.537 436.855,153.705 439.200,154.677 439.200 C 154.994 439.200,155.646 439.423,156.126 439.695 C 156.607 439.968,158.260 440.423,159.800 440.706 C 161.340 440.990,163.110 441.330,163.733 441.461 C 164.355 441.593,165.255 441.497,165.733 441.248 C 166.294 440.955,170.127 440.761,176.600 440.698 L 186.600 440.600 186.701 286.621 C 186.771 179.211,186.674 132.514,186.380 132.221 C 185.816 131.658,162.920 131.822,161.400 132.400 C 160.794 132.630,158.935 132.934,157.269 133.075 C 155.602 133.216,153.780 133.570,153.219 133.863 C 152.659 134.156,151.919 134.396,151.576 134.398 C 151.234 134.399,150.604 134.664,150.176 134.987 C 149.015 135.866,148.222 135.728,146.803 134.402 C 145.268 132.969,141.473 129.976,139.191 128.400 C 136.465 126.517,133.603 124.086,131.259 121.662 C 126.617 116.864,120.715 115.344,115.688 117.654 " stroke="none" fill="#080404" fill-rule="evenodd"></path><path id="path2" d="M0.000 257.400 L 0.000 514.800 200.000 514.800 L 400.000 514.800 400.000 257.400 L 400.000 0.000 200.000 0.000 L 0.000 0.000 0.000 257.400 M233.239 114.536 C 235.856 115.860,238.182 117.826,238.777 119.216 C 239.009 119.757,239.355 120.470,239.546 120.800 C 241.628 124.395,242.500 148.408,240.673 151.880 C 240.210 152.761,239.999 154.134,239.998 156.280 C 239.996 158.265,239.778 159.817,239.398 160.546 C 238.517 162.234,238.519 178.577,239.400 179.457 C 239.730 179.787,240.000 180.405,240.000 180.830 C 240.000 181.255,240.360 182.275,240.800 183.096 C 241.240 183.916,241.606 184.951,241.613 185.394 C 241.620 185.837,241.890 186.549,242.213 186.976 C 242.536 187.404,242.800 188.236,242.800 188.827 C 242.800 189.418,243.070 190.126,243.400 190.400 C 243.730 190.674,244.000 191.284,244.000 191.755 C 244.000 192.226,244.360 193.284,244.800 194.104 C 245.240 194.925,245.600 196.026,245.600 196.550 C 245.600 197.073,245.870 197.726,246.200 198.000 C 246.530 198.274,246.800 199.066,246.800 199.760 C 246.800 200.454,247.072 201.410,247.404 201.884 C 247.736 202.359,248.123 203.614,248.264 204.673 C 248.404 205.733,248.762 206.955,249.060 207.389 C 249.357 207.823,249.600 208.818,249.600 209.600 C 249.600 210.382,249.864 211.399,250.187 211.860 C 250.510 212.321,250.897 213.486,251.046 214.449 C 251.196 215.412,251.562 216.555,251.859 216.989 C 252.157 217.423,252.400 218.557,252.400 219.509 C 252.400 220.461,252.646 221.726,252.946 222.320 C 254.505 225.408,254.504 244.184,252.944 247.280 C 252.645 247.874,252.399 249.314,252.398 250.480 C 252.396 251.646,252.150 253.070,251.850 253.644 C 251.550 254.219,251.173 255.929,251.010 257.444 C 250.848 258.960,250.465 260.686,250.158 261.280 C 249.851 261.874,249.600 263.287,249.600 264.420 C 249.600 265.552,249.347 267.046,249.038 267.740 C 248.728 268.433,248.375 270.221,248.252 271.713 C 248.128 273.204,247.752 274.820,247.414 275.302 C 247.025 275.856,246.800 277.071,246.800 278.613 C 246.800 280.134,246.580 281.338,246.213 281.824 C 245.454 282.827,245.443 284.439,246.187 285.424 C 246.510 285.851,246.780 286.606,246.787 287.101 C 246.794 287.597,247.160 288.675,247.600 289.496 C 248.040 290.316,248.400 291.374,248.400 291.845 C 248.400 292.316,248.670 292.926,249.000 293.200 C 249.330 293.474,249.600 294.036,249.600 294.449 C 249.600 294.895,249.884 295.202,250.300 295.206 C 250.685 295.209,251.450 295.474,252.000 295.793 C 252.550 296.113,253.495 296.578,254.100 296.827 C 254.705 297.075,255.200 297.441,255.200 297.639 C 255.200 297.838,255.446 298.000,255.746 298.000 C 256.046 298.000,256.750 298.360,257.309 298.800 C 257.869 299.240,258.536 299.600,258.792 299.600 C 259.049 299.600,260.481 300.545,261.976 301.700 C 263.470 302.855,265.117 304.070,265.636 304.400 C 267.342 305.485,276.823 315.353,277.057 316.287 C 277.184 316.789,277.452 317.200,277.653 317.200 C 277.855 317.200,278.205 317.605,278.431 318.100 C 279.212 319.812,280.139 321.396,280.668 321.925 C 280.961 322.218,281.200 322.785,281.200 323.186 C 281.200 323.587,281.470 324.018,281.800 324.145 C 282.143 324.276,282.400 324.873,282.400 325.538 C 282.400 326.178,282.665 326.922,282.989 327.191 C 283.314 327.460,283.684 328.337,283.813 329.140 C 283.942 329.943,284.307 331.078,284.624 331.662 C 284.941 332.246,285.200 333.290,285.200 333.982 C 285.200 334.674,285.467 335.757,285.794 336.389 C 286.121 337.021,286.510 338.848,286.659 340.448 C 286.808 342.049,287.169 343.818,287.462 344.379 C 287.779 344.986,288.002 346.778,288.012 348.800 C 288.022 350.986,288.232 352.557,288.600 353.200 C 289.456 354.697,289.467 377.894,288.613 379.024 C 288.290 379.451,288.020 380.566,288.013 381.501 C 288.006 382.437,287.640 383.875,287.200 384.696 C 286.760 385.516,286.400 386.376,286.400 386.605 C 286.400 386.834,285.905 387.567,285.300 388.234 C 282.795 390.994,279.600 395.196,279.600 395.730 C 279.600 396.044,279.330 396.526,279.000 396.800 C 278.670 397.074,278.400 397.822,278.400 398.462 C 278.400 399.127,278.143 399.724,277.800 399.855 C 277.470 399.982,277.200 400.402,277.200 400.789 C 277.200 401.176,276.840 401.950,276.400 402.509 C 275.960 403.069,275.600 403.908,275.600 404.376 C 275.600 404.843,275.330 405.329,275.000 405.455 C 274.670 405.582,274.400 406.088,274.400 406.581 C 274.400 407.073,274.040 407.802,273.600 408.200 C 273.160 408.598,272.800 409.103,272.800 409.321 C 272.800 409.539,272.170 410.486,271.400 411.426 C 270.630 412.366,270.000 413.329,270.000 413.567 C 270.000 413.805,269.842 414.000,269.649 414.000 C 269.455 414.000,269.073 414.540,268.800 415.200 C 268.527 415.860,268.145 416.400,267.951 416.400 C 267.758 416.400,267.600 416.580,267.600 416.800 C 267.600 417.482,284.784 417.295,286.000 416.600 C 286.573 416.272,288.109 416.021,289.600 416.012 C 291.133 416.002,292.685 415.742,293.382 415.379 C 294.032 415.040,295.335 414.656,296.278 414.527 C 297.220 414.398,298.195 414.047,298.445 413.746 C 298.694 413.446,299.332 413.200,299.862 413.200 C 300.391 413.200,300.924 412.941,301.046 412.624 C 301.167 412.308,301.779 411.936,302.406 411.799 C 303.032 411.661,303.759 411.290,304.021 410.974 C 304.283 410.658,304.825 410.400,305.225 410.400 C 305.625 410.400,306.075 410.202,306.225 409.959 C 306.375 409.717,307.061 409.256,307.749 408.935 C 308.437 408.614,310.080 407.736,311.400 406.984 C 312.720 406.232,314.250 405.394,314.800 405.121 C 315.790 404.630,318.376 402.803,320.500 401.094 C 321.978 399.904,322.055 397.753,320.639 397.215 C 320.110 397.014,319.560 396.658,319.415 396.425 C 318.999 395.751,314.586 395.893,314.000 396.600 C 313.424 397.294,307.019 397.477,306.607 396.811 C 306.474 396.597,305.679 396.237,304.839 396.011 C 302.761 395.451,299.853 392.796,298.797 390.495 C 298.319 389.453,297.719 388.167,297.464 387.637 C 296.713 386.080,296.869 381.473,297.701 380.642 C 298.085 380.257,298.400 379.500,298.400 378.959 C 298.400 378.418,298.670 377.871,299.000 377.745 C 299.330 377.618,299.600 377.293,299.600 377.023 C 299.600 376.526,302.629 373.600,303.144 373.600 C 303.297 373.600,303.730 373.240,304.107 372.800 C 304.484 372.360,305.289 371.994,305.896 371.987 C 306.503 371.980,307.349 371.710,307.776 371.387 C 308.204 371.064,309.244 370.800,310.089 370.800 C 310.934 370.800,312.272 370.530,313.062 370.200 C 314.903 369.431,318.620 369.431,320.800 370.200 C 321.735 370.530,323.254 370.800,324.174 370.800 C 325.094 370.800,326.196 371.064,326.624 371.387 C 327.051 371.710,327.882 371.980,328.471 371.987 C 329.061 371.994,329.804 372.261,330.123 372.580 C 330.442 372.899,331.168 373.277,331.735 373.419 C 332.303 373.562,332.977 373.931,333.233 374.239 C 333.489 374.548,333.918 374.800,334.188 374.800 C 334.457 374.800,335.110 375.160,335.639 375.600 C 337.671 377.292,340.519 379.823,340.950 380.319 C 341.197 380.605,341.690 381.145,342.044 381.519 C 343.021 382.553,345.600 386.344,345.600 386.747 C 345.600 386.942,345.870 387.326,346.200 387.600 C 346.530 387.874,346.800 388.593,346.800 389.198 C 346.800 389.803,347.180 391.158,347.645 392.210 C 348.753 394.714,348.646 403.542,347.488 405.195 C 347.110 405.736,346.800 406.746,346.800 407.440 C 346.800 408.134,346.530 408.926,346.200 409.200 C 345.870 409.474,345.600 410.012,345.600 410.395 C 345.600 410.778,345.240 411.550,344.800 412.109 C 344.360 412.669,344.000 413.259,344.000 413.422 C 344.000 414.614,336.855 421.874,333.590 424.000 C 333.083 424.330,332.380 424.870,332.029 425.200 C 331.677 425.530,330.941 426.022,330.395 426.293 C 329.848 426.564,328.320 427.421,327.000 428.197 C 325.680 428.973,324.060 429.879,323.400 430.210 C 322.211 430.806,321.452 431.220,320.100 432.008 C 319.715 432.232,318.860 432.688,318.200 433.021 C 317.540 433.354,315.494 434.430,313.652 435.413 C 311.811 436.396,310.078 437.200,309.801 437.200 C 309.524 437.200,309.074 437.470,308.800 437.800 C 308.526 438.130,307.824 438.400,307.240 438.400 C 306.656 438.400,305.814 438.655,305.369 438.967 C 304.923 439.279,303.865 439.664,303.017 439.823 C 302.168 439.982,301.008 440.356,300.437 440.654 C 299.867 440.952,298.230 441.203,296.800 441.212 C 295.309 441.221,293.773 441.472,293.200 441.800 C 292.650 442.114,291.184 442.378,289.943 442.386 C 288.701 442.394,286.271 442.701,284.543 443.068 C 280.349 443.960,254.924 444.128,253.888 443.271 C 253.536 442.980,251.842 442.639,250.124 442.513 C 248.406 442.387,246.645 442.040,246.211 441.742 C 245.777 441.444,244.935 441.200,244.340 441.200 C 243.744 441.200,243.009 440.952,242.706 440.649 C 242.403 440.346,241.592 439.974,240.905 439.823 C 240.218 439.672,239.441 439.290,239.179 438.974 C 238.563 438.232,237.431 438.240,236.809 438.989 C 236.540 439.314,235.667 439.701,234.870 439.851 C 234.072 440.000,233.178 440.365,232.881 440.661 C 232.585 440.958,231.658 441.200,230.820 441.200 C 229.955 441.200,229.083 441.459,228.800 441.800 C 228.526 442.130,227.693 442.400,226.950 442.400 C 226.206 442.400,224.925 442.760,224.104 443.200 C 223.117 443.730,221.848 444.000,220.352 444.000 C 219.109 444.000,217.576 444.269,216.946 444.598 C 216.192 444.991,214.632 445.196,212.384 445.198 C 210.505 445.199,207.931 445.470,206.665 445.800 C 204.964 446.243,202.119 446.400,195.800 446.400 C 189.481 446.400,186.636 446.243,184.935 445.800 C 183.656 445.467,180.847 445.194,178.616 445.186 C 175.891 445.176,174.279 444.988,173.600 444.600 C 173.027 444.272,171.491 444.021,170.000 444.012 C 168.524 444.002,166.913 443.741,166.274 443.408 C 165.655 443.085,164.215 442.703,163.074 442.559 C 161.933 442.415,160.393 442.050,159.651 441.748 C 158.909 441.447,157.734 441.200,157.040 441.200 C 156.346 441.200,155.423 440.957,154.989 440.660 C 154.555 440.363,153.660 439.996,153.000 439.846 C 151.885 439.592,149.808 438.735,148.400 437.947 C 148.070 437.763,147.260 437.334,146.600 436.995 C 143.842 435.578,139.200 432.420,139.200 431.961 C 139.200 431.762,138.961 431.600,138.668 431.600 C 137.714 431.600,130.288 424.614,127.156 420.772 C 125.329 418.529,123.456 416.357,122.387 415.240 C 121.079 413.874,118.800 410.846,118.800 410.475 C 118.800 410.261,118.530 409.982,118.200 409.855 C 117.870 409.729,117.600 409.377,117.600 409.075 C 117.600 408.772,117.240 408.198,116.800 407.800 C 116.360 407.402,116.000 406.913,116.000 406.714 C 116.000 406.515,115.370 405.527,114.600 404.518 C 113.830 403.510,113.200 402.460,113.200 402.185 C 113.200 401.910,112.930 401.582,112.600 401.455 C 112.270 401.329,112.000 400.971,112.000 400.662 C 112.000 400.352,111.711 399.858,111.358 399.565 C 111.005 399.273,110.553 398.665,110.352 398.216 C 110.152 397.767,109.645 396.860,109.226 396.200 C 108.806 395.540,107.954 394.010,107.332 392.800 C 106.709 391.590,106.075 390.543,105.922 390.474 C 105.770 390.405,105.441 389.730,105.191 388.974 C 104.942 388.218,104.586 387.600,104.401 387.600 C 104.215 387.600,103.945 387.060,103.800 386.400 C 103.655 385.740,103.388 385.200,103.207 385.200 C 103.026 385.200,102.683 384.705,102.445 384.100 C 102.207 383.495,101.840 382.730,101.631 382.400 C 101.274 381.838,99.948 378.940,99.435 377.600 C 99.308 377.270,99.051 376.730,98.862 376.400 C 98.673 376.070,98.145 374.990,97.690 374.000 C 97.234 373.010,96.317 371.030,95.650 369.600 C 94.984 368.170,94.313 366.460,94.159 365.800 C 94.006 365.140,93.637 364.245,93.340 363.811 C 93.043 363.377,92.800 362.646,92.800 362.187 C 92.800 361.728,92.536 361.004,92.213 360.576 C 91.890 360.149,91.620 359.437,91.613 358.994 C 91.606 358.551,91.240 357.516,90.800 356.696 C 90.360 355.875,90.000 354.863,90.000 354.447 C 90.000 354.032,89.731 353.176,89.402 352.546 C 89.074 351.916,88.804 350.899,88.802 350.287 C 88.801 349.675,88.535 348.540,88.211 347.764 C 87.887 346.988,87.503 345.419,87.357 344.277 C 87.212 343.135,86.911 341.970,86.689 341.689 C 86.466 341.408,86.144 339.158,85.973 336.689 C 85.801 334.220,85.423 331.480,85.131 330.600 C 84.240 327.915,84.398 295.181,85.313 292.850 C 85.691 291.887,86.000 290.210,86.000 289.123 C 86.000 288.037,86.221 286.754,86.490 286.274 C 86.760 285.793,87.187 284.500,87.440 283.400 C 88.215 280.033,92.032 271.312,93.480 269.600 C 93.760 269.270,95.116 267.650,96.494 266.000 C 97.872 264.350,99.410 262.550,99.912 262.000 C 101.372 260.400,101.672 251.145,100.374 247.733 C 99.142 244.492,99.139 226.663,100.370 223.466 C 100.610 222.842,100.984 219.512,101.202 216.066 C 101.419 212.620,101.774 208.630,101.990 207.200 C 102.207 205.770,102.398 203.250,102.416 201.600 C 102.433 199.950,102.618 197.700,102.825 196.600 C 103.033 195.500,103.389 193.250,103.615 191.600 C 103.842 189.950,104.291 188.033,104.614 187.340 C 104.936 186.646,105.200 185.646,105.200 185.116 C 105.200 184.586,105.464 183.804,105.787 183.376 C 106.110 182.949,106.380 182.276,106.387 181.879 C 106.398 181.263,107.137 179.602,108.469 177.200 C 108.652 176.870,108.988 176.167,109.215 175.637 C 109.442 175.108,110.144 173.910,110.775 172.975 C 111.406 172.040,112.042 170.898,112.188 170.438 C 112.334 169.977,112.607 169.600,112.795 169.600 C 112.983 169.600,113.252 169.072,113.394 168.428 C 113.536 167.783,113.910 167.041,114.226 166.779 C 114.542 166.517,114.800 165.986,114.800 165.600 C 114.800 165.214,115.070 164.674,115.400 164.400 C 115.806 164.063,116.000 163.158,116.000 161.600 C 116.000 160.042,115.806 159.137,115.400 158.800 C 115.070 158.526,114.794 157.919,114.786 157.451 C 114.779 156.983,114.425 155.880,114.000 155.000 C 113.575 154.120,113.215 153.040,113.201 152.600 C 113.186 152.160,112.910 151.451,112.587 151.024 C 112.264 150.596,112.000 149.872,112.000 149.413 C 112.000 148.954,111.753 148.223,111.451 147.789 C 111.149 147.355,110.766 146.370,110.600 145.600 C 110.434 144.830,110.051 143.845,109.749 143.411 C 109.447 142.977,109.200 142.158,109.200 141.591 C 109.200 141.024,109.001 140.361,108.759 140.119 C 106.643 138.003,106.435 127.097,108.444 123.600 C 108.633 123.270,109.034 122.460,109.335 121.800 C 111.760 116.478,121.895 113.758,127.331 116.971 C 129.256 118.109,133.189 121.655,133.212 122.274 C 133.223 122.573,136.231 124.958,138.416 126.400 C 138.916 126.730,139.607 127.315,139.951 127.700 C 140.296 128.085,140.808 128.400,141.089 128.400 C 141.370 128.400,141.600 128.541,141.600 128.714 C 141.600 128.886,142.098 129.322,142.706 129.681 C 143.315 130.040,144.268 130.754,144.824 131.267 C 148.336 134.506,149.342 134.781,151.504 133.090 C 151.781 132.873,153.131 132.549,154.504 132.369 C 155.877 132.190,157.900 131.857,159.000 131.629 C 165.157 130.356,180.848 129.577,183.074 130.433 C 183.693 130.672,185.910 130.963,188.000 131.079 C 190.184 131.202,192.177 131.528,192.686 131.846 C 193.173 132.151,194.168 132.400,194.897 132.400 C 195.626 132.400,196.578 132.649,197.013 132.954 C 198.853 134.243,200.726 134.410,201.933 133.395 C 203.416 132.147,206.400 129.156,206.400 128.917 C 206.400 128.732,206.938 128.122,211.235 123.442 C 212.426 122.145,214.480 120.206,215.800 119.132 C 217.120 118.058,218.439 116.984,218.732 116.744 C 223.024 113.232,228.895 112.338,233.239 114.536 " stroke="none" fill="#fbfbfb" fill-rule="evenodd"></path><path id="path3" d="M222.332 114.735 C 220.644 115.601,219.024 116.505,218.732 116.744 C 218.439 116.984,217.120 118.058,215.800 119.132 C 214.480 120.206,212.426 122.145,211.235 123.442 C 206.938 128.122,206.400 128.732,206.400 128.917 C 206.400 129.156,203.416 132.147,201.933 133.395 C 200.726 134.410,198.853 134.243,197.013 132.954 C 196.578 132.649,195.626 132.400,194.897 132.400 C 194.168 132.400,193.173 132.151,192.686 131.846 C 192.177 131.528,190.184 131.202,188.000 131.079 C 185.910 130.963,183.693 130.672,183.074 130.433 C 181.576 129.857,173.628 129.947,168.400 130.600 L 164.200 131.124 173.200 131.062 C 183.322 130.992,190.037 131.420,191.761 132.245 C 192.400 132.550,193.461 132.800,194.118 132.800 C 194.775 132.800,196.142 133.184,197.156 133.654 C 198.170 134.124,199.422 134.704,199.937 134.942 C 200.911 135.392,204.438 132.105,211.745 123.940 C 214.635 120.710,220.094 116.328,222.400 115.386 C 222.730 115.252,223.591 114.885,224.314 114.571 C 226.055 113.814,230.755 113.840,231.776 114.613 C 232.204 114.936,232.815 115.200,233.135 115.200 C 234.707 115.200,239.600 120.627,239.600 122.370 C 239.600 122.771,239.870 123.865,240.200 124.800 C 240.679 126.158,240.800 128.779,240.800 137.800 C 240.800 146.821,240.679 149.442,240.200 150.800 C 239.870 151.735,239.600 153.525,239.600 154.778 C 239.600 156.030,239.328 157.971,238.995 159.092 C 238.026 162.356,237.952 178.649,238.900 179.989 C 239.285 180.533,239.600 181.354,239.600 181.813 C 239.600 182.272,239.864 182.996,240.187 183.424 C 240.510 183.851,240.780 184.477,240.787 184.815 C 240.794 185.154,241.160 186.137,241.600 187.000 C 242.040 187.863,242.406 188.936,242.413 189.385 C 242.420 189.833,242.690 190.549,243.013 190.976 C 243.336 191.404,243.600 192.079,243.600 192.478 C 243.600 192.877,243.960 193.875,244.400 194.696 C 244.840 195.516,245.200 196.561,245.200 197.018 C 245.200 197.474,245.464 198.196,245.787 198.624 C 246.110 199.051,246.380 199.945,246.387 200.611 C 246.394 201.277,246.643 202.177,246.941 202.611 C 247.238 203.045,247.604 204.184,247.752 205.142 C 247.901 206.100,248.288 207.396,248.611 208.022 C 248.935 208.648,249.206 209.754,249.213 210.480 C 249.220 211.206,249.490 212.149,249.813 212.576 C 250.136 213.004,250.406 213.904,250.414 214.576 C 250.421 215.249,250.775 216.520,251.200 217.400 C 251.625 218.280,251.979 219.743,251.986 220.651 C 251.994 221.559,252.300 222.999,252.667 223.851 C 253.670 226.181,253.680 243.995,252.680 245.880 C 252.306 246.584,252.000 247.956,252.000 248.928 C 252.000 249.900,251.640 251.823,251.200 253.200 C 250.760 254.577,250.400 256.379,250.400 257.203 C 250.400 258.028,250.130 259.349,249.800 260.138 C 249.470 260.928,249.200 262.396,249.200 263.400 C 249.200 264.404,248.946 265.833,248.636 266.576 C 248.325 267.319,247.942 269.138,247.783 270.619 C 247.625 272.100,247.250 273.781,246.950 274.356 C 246.650 274.930,246.404 276.261,246.402 277.313 C 246.401 278.365,246.130 279.872,245.800 280.662 C 245.042 282.476,245.048 285.165,245.813 286.176 C 246.136 286.604,246.401 287.324,246.402 287.776 C 246.404 288.229,246.657 289.083,246.965 289.673 C 247.273 290.263,247.655 291.341,247.815 292.069 C 248.147 293.578,249.853 296.000,250.585 296.000 C 250.854 296.000,251.867 296.450,252.837 297.000 C 253.807 297.550,255.140 298.276,255.800 298.613 C 256.460 298.950,257.540 299.578,258.200 300.008 C 258.860 300.439,259.670 300.919,260.000 301.076 C 263.073 302.534,271.849 310.535,275.272 314.999 C 276.116 316.100,276.945 317.180,277.115 317.400 C 277.284 317.620,277.942 318.700,278.577 319.800 C 279.211 320.900,279.867 321.892,280.034 322.004 C 280.200 322.116,280.459 322.694,280.608 323.288 C 280.757 323.881,281.131 324.577,281.439 324.833 C 281.748 325.089,282.000 325.686,282.000 326.160 C 282.000 326.634,282.255 327.386,282.567 327.831 C 282.879 328.277,283.264 329.352,283.424 330.220 C 283.583 331.089,283.958 332.155,284.257 332.589 C 284.556 333.023,284.800 333.974,284.800 334.702 C 284.800 335.430,285.070 336.672,285.400 337.462 C 285.730 338.251,286.008 339.731,286.018 340.749 C 286.027 341.767,286.305 343.320,286.635 344.200 C 286.965 345.080,287.382 347.690,287.562 350.000 C 287.743 352.310,288.095 354.707,288.345 355.326 C 289.083 357.153,288.961 376.316,288.200 378.138 C 287.870 378.928,287.600 380.130,287.600 380.809 C 287.600 382.792,285.470 387.312,283.550 389.400 C 280.614 392.595,279.898 393.562,278.958 395.600 C 278.400 396.810,277.596 398.540,277.172 399.444 C 276.747 400.348,276.400 401.271,276.400 401.495 C 276.400 401.719,276.130 402.126,275.800 402.400 C 275.470 402.674,275.200 403.223,275.200 403.620 C 275.200 404.018,274.954 404.589,274.653 404.890 C 274.352 405.191,273.968 405.879,273.799 406.419 C 273.631 406.958,272.977 408.056,272.347 408.858 C 271.716 409.659,271.200 410.451,271.200 410.616 C 271.200 410.782,270.570 411.686,269.800 412.626 C 269.030 413.566,268.400 414.456,268.400 414.604 C 268.400 414.753,268.039 415.333,267.598 415.893 C 265.969 417.965,266.710 418.118,276.784 417.792 C 281.743 417.631,286.250 417.317,286.800 417.095 C 287.350 416.872,289.150 416.556,290.800 416.392 C 293.552 416.119,295.847 415.494,299.000 414.159 C 299.660 413.880,300.470 413.545,300.800 413.416 C 301.130 413.286,302.660 412.479,304.200 411.620 C 305.740 410.762,308.080 409.490,309.400 408.794 C 310.720 408.097,312.161 407.319,312.602 407.064 C 313.044 406.809,314.574 405.931,316.002 405.114 C 321.867 401.760,323.646 398.567,320.816 396.475 C 319.387 395.419,314.853 395.255,313.200 396.200 C 311.868 396.962,307.977 396.970,306.976 396.213 C 306.549 395.890,305.894 395.620,305.520 395.613 C 303.574 395.576,298.800 390.776,298.800 388.856 C 298.800 388.469,298.536 387.804,298.213 387.376 C 297.453 386.372,297.445 382.520,298.200 381.200 C 298.514 380.650,298.778 379.873,298.786 379.473 C 298.821 377.664,303.976 373.019,306.495 372.527 C 307.213 372.386,308.242 371.985,308.782 371.636 C 310.292 370.659,324.207 370.719,325.718 371.709 C 326.298 372.089,327.073 372.400,327.442 372.400 C 328.429 372.400,331.280 373.735,334.800 375.845 C 336.901 377.104,342.986 383.053,343.597 384.445 C 343.828 384.970,344.538 386.210,345.177 387.200 C 345.815 388.190,346.352 389.540,346.371 390.200 C 346.390 390.860,346.704 391.940,347.070 392.600 C 348.005 394.289,347.991 402.484,347.050 404.304 C 346.692 404.995,346.400 405.994,346.400 406.523 C 346.400 409.886,340.797 417.578,335.200 421.898 C 333.330 423.342,331.620 424.720,331.400 424.962 C 331.180 425.204,330.010 425.911,328.800 426.533 C 327.590 427.154,326.060 427.998,325.400 428.407 C 324.740 428.816,323.120 429.714,321.800 430.403 C 320.480 431.093,318.680 432.085,317.800 432.609 C 316.920 433.133,315.930 433.673,315.600 433.810 C 315.270 433.946,314.730 434.226,314.400 434.431 C 314.070 434.637,313.530 434.903,313.200 435.022 C 312.870 435.142,311.934 435.591,311.121 436.020 C 310.307 436.449,309.384 436.800,309.070 436.800 C 308.755 436.800,308.274 437.070,308.000 437.400 C 307.726 437.730,307.018 438.000,306.427 438.000 C 305.836 438.000,305.004 438.264,304.576 438.587 C 304.149 438.910,303.434 439.180,302.986 439.187 C 302.539 439.194,301.148 439.560,299.896 440.000 C 298.644 440.440,296.727 440.800,295.636 440.800 C 294.545 440.800,293.145 441.008,292.526 441.263 C 288.988 442.717,258.052 443.838,254.536 442.640 C 253.503 442.288,251.554 442.000,250.205 442.000 C 248.668 442.000,247.463 441.781,246.976 441.413 C 246.549 441.090,245.786 440.820,245.279 440.813 C 244.773 440.806,243.603 440.408,242.679 439.930 C 239.302 438.179,238.859 438.000,237.915 438.000 C 237.386 438.000,236.604 438.264,236.176 438.587 C 235.749 438.910,235.130 439.181,234.800 439.190 C 234.470 439.198,233.660 439.487,233.000 439.832 C 232.340 440.177,231.080 440.609,230.200 440.791 C 229.320 440.974,228.060 441.302,227.400 441.521 C 223.354 442.863,221.655 443.290,219.651 443.468 C 218.413 443.578,216.721 443.922,215.892 444.234 C 215.021 444.561,212.909 444.803,210.892 444.807 C 208.971 444.811,206.140 445.081,204.600 445.407 C 200.984 446.173,191.641 446.172,187.400 445.406 C 185.640 445.088,182.490 444.814,180.400 444.796 C 178.178 444.778,175.935 444.525,175.000 444.188 C 174.120 443.871,172.500 443.605,171.400 443.596 C 170.300 443.588,168.680 443.394,167.800 443.166 C 166.207 442.753,163.460 442.110,158.700 441.036 C 141.615 437.179,121.152 417.796,107.989 393.000 C 107.055 391.240,106.160 389.620,106.001 389.400 C 105.767 389.076,104.038 385.920,101.948 382.000 C 101.772 381.670,100.977 379.960,100.181 378.200 C 99.386 376.440,98.403 374.280,97.997 373.400 C 94.969 366.837,94.400 365.487,94.400 364.861 C 94.400 364.472,94.136 363.804,93.813 363.376 C 93.490 362.949,93.220 362.333,93.213 362.008 C 93.206 361.682,92.817 360.422,92.349 359.208 C 90.395 354.135,89.981 352.818,88.576 347.200 C 87.259 341.933,86.735 339.330,86.401 336.400 L 86.060 333.400 86.147 337.259 C 86.194 339.381,86.427 341.361,86.663 341.659 C 86.900 341.956,87.212 343.135,87.357 344.277 C 87.503 345.419,87.887 346.988,88.211 347.764 C 88.535 348.540,88.801 349.675,88.802 350.287 C 88.804 350.899,89.074 351.916,89.402 352.546 C 89.731 353.176,90.000 354.032,90.000 354.447 C 90.000 354.863,90.360 355.875,90.800 356.696 C 91.240 357.516,91.606 358.551,91.613 358.994 C 91.620 359.437,91.890 360.149,92.213 360.576 C 92.536 361.004,92.800 361.728,92.800 362.187 C 92.800 362.646,93.043 363.377,93.340 363.811 C 93.637 364.245,94.006 365.140,94.159 365.800 C 94.313 366.460,94.984 368.170,95.650 369.600 C 96.317 371.030,97.234 373.010,97.690 374.000 C 98.145 374.990,98.673 376.070,98.862 376.400 C 99.051 376.730,99.308 377.270,99.435 377.600 C 99.948 378.940,101.274 381.838,101.631 382.400 C 101.840 382.730,102.207 383.495,102.445 384.100 C 102.683 384.705,103.026 385.200,103.207 385.200 C 103.388 385.200,103.655 385.740,103.800 386.400 C 103.945 387.060,104.215 387.600,104.401 387.600 C 104.586 387.600,104.942 388.218,105.191 388.974 C 105.441 389.730,105.770 390.405,105.922 390.474 C 106.075 390.543,106.709 391.590,107.332 392.800 C 107.954 394.010,108.806 395.540,109.226 396.200 C 109.645 396.860,110.152 397.767,110.352 398.216 C 110.553 398.665,111.005 399.273,111.358 399.565 C 111.711 399.858,112.000 400.352,112.000 400.662 C 112.000 400.971,112.270 401.329,112.600 401.455 C 112.930 401.582,113.200 401.910,113.200 402.185 C 113.200 402.460,113.830 403.510,114.600 404.518 C 115.370 405.527,116.000 406.515,116.000 406.714 C 116.000 406.913,116.360 407.402,116.800 407.800 C 117.240 408.198,117.600 408.772,117.600 409.075 C 117.600 409.377,117.870 409.729,118.200 409.855 C 118.530 409.982,118.800 410.261,118.800 410.475 C 118.800 410.846,121.079 413.874,122.387 415.240 C 123.456 416.357,125.329 418.529,127.156 420.772 C 130.288 424.614,137.714 431.600,138.668 431.600 C 138.961 431.600,139.200 431.762,139.200 431.961 C 139.200 432.420,143.842 435.578,146.600 436.995 C 147.260 437.334,148.070 437.763,148.400 437.947 C 149.808 438.735,151.885 439.592,153.000 439.846 C 153.660 439.996,154.555 440.363,154.989 440.660 C 155.423 440.957,156.346 441.200,157.040 441.200 C 157.734 441.200,158.909 441.447,159.651 441.748 C 160.393 442.050,161.933 442.415,163.074 442.559 C 164.215 442.703,165.655 443.085,166.274 443.408 C 166.913 443.741,168.524 444.002,170.000 444.012 C 171.491 444.021,173.027 444.272,173.600 444.600 C 174.279 444.988,175.891 445.176,178.616 445.186 C 180.847 445.194,183.656 445.467,184.935 445.800 C 186.636 446.243,189.481 446.400,195.800 446.400 C 202.119 446.400,204.964 446.243,206.665 445.800 C 207.931 445.470,210.505 445.199,212.384 445.198 C 214.632 445.196,216.192 444.991,216.946 444.598 C 217.576 444.269,219.109 444.000,220.352 444.000 C 221.848 444.000,223.117 443.730,224.104 443.200 C 224.925 442.760,226.206 442.400,226.950 442.400 C 227.693 442.400,228.526 442.130,228.800 441.800 C 229.083 441.459,229.955 441.200,230.820 441.200 C 231.658 441.200,232.585 440.958,232.881 440.661 C 233.178 440.365,234.072 440.000,234.870 439.851 C 235.667 439.701,236.540 439.314,236.809 438.989 C 237.431 438.240,238.563 438.232,239.179 438.974 C 239.441 439.290,240.218 439.672,240.905 439.823 C 241.592 439.974,242.403 440.346,242.706 440.649 C 243.009 440.952,243.744 441.200,244.340 441.200 C 244.935 441.200,245.777 441.444,246.211 441.742 C 246.645 442.040,248.406 442.387,250.124 442.513 C 251.842 442.639,253.536 442.980,253.888 443.271 C 254.924 444.128,280.349 443.960,284.543 443.068 C 286.271 442.701,288.701 442.394,289.943 442.386 C 291.184 442.378,292.650 442.114,293.200 441.800 C 293.773 441.472,295.309 441.221,296.800 441.212 C 298.230 441.203,299.867 440.952,300.437 440.654 C 301.008 440.356,302.168 439.982,303.017 439.823 C 303.865 439.664,304.923 439.279,305.369 438.967 C 305.814 438.655,306.656 438.400,307.240 438.400 C 307.824 438.400,308.526 438.130,308.800 437.800 C 309.074 437.470,309.524 437.200,309.801 437.200 C 310.078 437.200,311.811 436.396,313.652 435.413 C 315.494 434.430,317.540 433.354,318.200 433.021 C 318.860 432.688,319.715 432.232,320.100 432.008 C 321.452 431.220,322.211 430.806,323.400 430.210 C 324.060 429.879,325.680 428.973,327.000 428.197 C 328.320 427.421,329.848 426.564,330.395 426.293 C 330.941 426.022,331.677 425.530,332.029 425.200 C 332.380 424.870,333.083 424.330,333.590 424.000 C 336.855 421.874,344.000 414.614,344.000 413.422 C 344.000 413.259,344.360 412.669,344.800 412.109 C 345.240 411.550,345.600 410.778,345.600 410.395 C 345.600 410.012,345.870 409.474,346.200 409.200 C 346.530 408.926,346.800 408.134,346.800 407.440 C 346.800 406.746,347.110 405.736,347.488 405.195 C 348.646 403.542,348.753 394.714,347.645 392.210 C 347.180 391.158,346.800 389.803,346.800 389.198 C 346.800 388.593,346.530 387.874,346.200 387.600 C 345.870 387.326,345.600 386.942,345.600 386.747 C 345.600 386.344,343.021 382.553,342.044 381.519 C 341.690 381.145,341.197 380.605,340.950 380.319 C 340.519 379.823,337.671 377.292,335.639 375.600 C 335.110 375.160,334.457 374.800,334.188 374.800 C 333.918 374.800,333.489 374.548,333.233 374.239 C 332.977 373.931,332.303 373.562,331.735 373.419 C 331.168 373.277,330.442 372.899,330.123 372.580 C 329.804 372.261,329.061 371.994,328.471 371.987 C 327.882 371.980,327.051 371.710,326.624 371.387 C 326.196 371.064,325.094 370.800,324.174 370.800 C 323.254 370.800,321.735 370.530,320.800 370.200 C 318.620 369.431,314.903 369.431,313.062 370.200 C 312.272 370.530,310.934 370.800,310.089 370.800 C 309.244 370.800,308.204 371.064,307.776 371.387 C 307.349 371.710,306.503 371.980,305.896 371.987 C 305.289 371.994,304.484 372.360,304.107 372.800 C 303.730 373.240,303.297 373.600,303.144 373.600 C 302.629 373.600,299.600 376.526,299.600 377.023 C 299.600 377.293,299.330 377.618,299.000 377.745 C 298.670 377.871,298.400 378.418,298.400 378.959 C 298.400 379.500,298.085 380.257,297.701 380.642 C 296.869 381.473,296.713 386.080,297.464 387.637 C 297.719 388.167,298.319 389.453,298.797 390.495 C 299.853 392.796,302.761 395.451,304.839 396.011 C 305.679 396.237,306.474 396.597,306.607 396.811 C 307.019 397.477,313.424 397.294,314.000 396.600 C 314.586 395.893,318.999 395.751,319.415 396.425 C 319.560 396.658,320.110 397.014,320.639 397.215 C 322.055 397.753,321.978 399.904,320.500 401.094 C 318.376 402.803,315.790 404.630,314.800 405.121 C 314.250 405.394,312.720 406.232,311.400 406.984 C 310.080 407.736,308.437 408.614,307.749 408.935 C 307.061 409.256,306.375 409.717,306.225 409.959 C 306.075 410.202,305.625 410.400,305.225 410.400 C 304.825 410.400,304.283 410.658,304.021 410.974 C 303.759 411.290,303.032 411.661,302.406 411.799 C 301.779 411.936,301.167 412.308,301.046 412.624 C 300.924 412.941,300.391 413.200,299.862 413.200 C 299.332 413.200,298.694 413.446,298.445 413.746 C 298.195 414.047,297.220 414.398,296.278 414.527 C 295.335 414.656,294.032 415.040,293.382 415.379 C 292.685 415.742,291.133 416.002,289.600 416.012 C 288.109 416.021,286.573 416.272,286.000 416.600 C 284.784 417.295,267.600 417.482,267.600 416.800 C 267.600 416.580,267.758 416.400,267.951 416.400 C 268.145 416.400,268.527 415.860,268.800 415.200 C 269.073 414.540,269.455 414.000,269.649 414.000 C 269.842 414.000,270.000 413.805,270.000 413.567 C 270.000 413.329,270.630 412.366,271.400 411.426 C 272.170 410.486,272.800 409.539,272.800 409.321 C 272.800 409.103,273.160 408.598,273.600 408.200 C 274.040 407.802,274.400 407.073,274.400 406.581 C 274.400 406.088,274.670 405.582,275.000 405.455 C 275.330 405.329,275.600 404.843,275.600 404.376 C 275.600 403.908,275.960 403.069,276.400 402.509 C 276.840 401.950,277.200 401.176,277.200 400.789 C 277.200 400.402,277.470 399.982,277.800 399.855 C 278.143 399.724,278.400 399.127,278.400 398.462 C 278.400 397.822,278.670 397.074,279.000 396.800 C 279.330 396.526,279.600 396.044,279.600 395.730 C 279.600 395.196,282.795 390.994,285.300 388.234 C 285.905 387.567,286.400 386.834,286.400 386.605 C 286.400 386.376,286.760 385.516,287.200 384.696 C 287.640 383.875,288.006 382.437,288.013 381.501 C 288.020 380.566,288.290 379.451,288.613 379.024 C 289.467 377.894,289.456 354.697,288.600 353.200 C 288.232 352.557,288.022 350.986,288.012 348.800 C 288.002 346.778,287.779 344.986,287.462 344.379 C 287.169 343.818,286.808 342.049,286.659 340.448 C 286.510 338.848,286.121 337.021,285.794 336.389 C 285.467 335.757,285.200 334.674,285.200 333.982 C 285.200 333.290,284.941 332.246,284.624 331.662 C 284.307 331.078,283.942 329.943,283.813 329.140 C 283.684 328.337,283.314 327.460,282.989 327.191 C 282.665 326.922,282.400 326.178,282.400 325.538 C 282.400 324.873,282.143 324.276,281.800 324.145 C 281.470 324.018,281.200 323.587,281.200 323.186 C 281.200 322.785,280.961 322.218,280.668 321.925 C 280.139 321.396,279.212 319.812,278.431 318.100 C 278.205 317.605,277.855 317.200,277.653 317.200 C 277.452 317.200,277.184 316.789,277.057 316.287 C 276.823 315.353,267.342 305.485,265.636 304.400 C 265.117 304.070,263.470 302.855,261.976 301.700 C 260.481 300.545,259.049 299.600,258.792 299.600 C 258.536 299.600,257.869 299.240,257.309 298.800 C 256.750 298.360,256.046 298.000,255.746 298.000 C 255.446 298.000,255.200 297.838,255.200 297.639 C 255.200 297.441,254.705 297.075,254.100 296.827 C 253.495 296.578,252.550 296.113,252.000 295.793 C 251.450 295.474,250.685 295.209,250.300 295.206 C 249.884 295.202,249.600 294.895,249.600 294.449 C 249.600 294.036,249.330 293.474,249.000 293.200 C 248.670 292.926,248.400 292.316,248.400 291.845 C 248.400 291.374,248.040 290.316,247.600 289.496 C 247.160 288.675,246.794 287.597,246.787 287.101 C 246.780 286.606,246.510 285.851,246.187 285.424 C 245.443 284.439,245.454 282.827,246.213 281.824 C 246.580 281.338,246.800 280.134,246.800 278.613 C 246.800 277.071,247.025 275.856,247.414 275.302 C 247.752 274.820,248.128 273.204,248.252 271.713 C 248.375 270.221,248.728 268.433,249.038 267.740 C 249.347 267.046,249.600 265.552,249.600 264.420 C 249.600 263.287,249.851 261.874,250.158 261.280 C 250.465 260.686,250.848 258.960,251.010 257.444 C 251.173 255.929,251.550 254.219,251.850 253.644 C 252.150 253.070,252.396 251.646,252.398 250.480 C 252.399 249.314,252.645 247.874,252.944 247.280 C 254.504 244.184,254.505 225.408,252.946 222.320 C 252.646 221.726,252.400 220.461,252.400 219.509 C 252.400 218.557,252.157 217.423,251.859 216.989 C 251.562 216.555,251.196 215.412,251.046 214.449 C 250.897 213.486,250.510 212.321,250.187 211.860 C 249.864 211.399,249.600 210.382,249.600 209.600 C 249.600 208.818,249.357 207.823,249.060 207.389 C 248.762 206.955,248.404 205.733,248.264 204.673 C 248.123 203.614,247.736 202.359,247.404 201.884 C 247.072 201.410,246.800 200.454,246.800 199.760 C 246.800 199.066,246.530 198.274,246.200 198.000 C 245.870 197.726,245.600 197.073,245.600 196.550 C 245.600 196.026,245.240 194.925,244.800 194.104 C 244.360 193.284,244.000 192.226,244.000 191.755 C 244.000 191.284,243.730 190.674,243.400 190.400 C 243.070 190.126,242.800 189.418,242.800 188.827 C 242.800 188.236,242.536 187.404,242.213 186.976 C 241.890 186.549,241.620 185.837,241.613 185.394 C 241.606 184.951,241.240 183.916,240.800 183.096 C 240.360 182.275,240.000 181.255,240.000 180.830 C 240.000 180.405,239.730 179.787,239.400 179.457 C 238.519 178.577,238.517 162.234,239.398 160.546 C 239.778 159.817,239.996 158.265,239.998 156.280 C 239.999 154.134,240.210 152.761,240.673 151.880 C 242.500 148.408,241.628 124.395,239.546 120.800 C 239.355 120.470,239.009 119.757,238.777 119.216 C 236.599 114.127,228.054 111.799,222.332 114.735 M117.400 115.972 C 114.089 116.640,110.507 119.228,109.335 121.800 C 109.034 122.460,108.633 123.270,108.444 123.600 C 106.435 127.097,106.643 138.003,108.759 140.119 C 109.001 140.361,109.200 141.024,109.200 141.591 C 109.200 142.158,109.447 142.977,109.749 143.411 C 110.051 143.845,110.434 144.830,110.600 145.600 C 110.766 146.370,111.149 147.355,111.451 147.789 C 111.753 148.223,112.000 148.954,112.000 149.413 C 112.000 149.872,112.264 150.596,112.587 151.024 C 112.910 151.451,113.186 152.160,113.201 152.600 C 113.215 153.040,113.575 154.120,114.000 155.000 C 114.425 155.880,114.779 156.983,114.786 157.451 C 114.794 157.919,115.070 158.526,115.400 158.800 C 115.806 159.137,116.000 160.042,116.000 161.600 C 116.000 163.158,115.806 164.063,115.400 164.400 C 115.070 164.674,114.800 165.214,114.800 165.600 C 114.800 165.986,114.542 166.517,114.226 166.779 C 113.910 167.041,113.536 167.783,113.394 168.428 C 113.252 169.072,112.983 169.600,112.795 169.600 C 112.607 169.600,112.334 169.977,112.188 170.438 C 112.042 170.898,111.406 172.040,110.775 172.975 C 110.144 173.910,109.442 175.108,109.215 175.637 C 108.988 176.167,108.652 176.870,108.469 177.200 C 107.137 179.602,106.398 181.263,106.387 181.879 C 106.380 182.276,106.110 182.949,105.787 183.376 C 105.464 183.804,105.200 184.586,105.200 185.116 C 105.200 185.646,104.936 186.646,104.614 187.340 C 104.291 188.033,103.842 189.950,103.615 191.600 C 103.389 193.250,103.033 195.500,102.825 196.600 C 102.618 197.700,102.433 199.950,102.416 201.600 C 102.398 203.250,102.207 205.770,101.990 207.200 C 101.774 208.630,101.419 212.620,101.202 216.066 C 100.984 219.512,100.610 222.842,100.370 223.466 C 99.139 226.663,99.142 244.492,100.374 247.733 C 101.672 251.145,101.372 260.400,99.912 262.000 C 99.410 262.550,97.872 264.350,96.494 266.000 C 95.116 267.650,93.760 269.270,93.480 269.600 C 92.032 271.312,88.215 280.033,87.440 283.400 C 87.187 284.500,86.760 285.793,86.490 286.274 C 86.221 286.754,86.024 288.104,86.053 289.274 L 86.107 291.400 86.396 289.600 C 86.693 287.747,87.400 285.045,88.594 281.200 C 90.066 276.462,94.360 268.653,96.623 266.600 C 102.142 261.593,102.888 257.530,100.516 245.400 C 99.773 241.602,99.662 229.566,100.345 226.800 C 100.909 224.512,102.268 211.962,102.576 206.200 C 102.827 201.497,103.788 193.356,104.440 190.400 C 105.438 185.879,105.696 184.920,106.230 183.740 C 106.543 183.046,106.800 182.231,106.800 181.929 C 106.800 181.626,107.046 181.023,107.346 180.589 C 107.646 180.155,108.022 179.383,108.182 178.873 C 108.341 178.363,109.289 176.563,110.290 174.873 C 116.862 163.766,117.301 162.040,115.038 156.200 C 114.441 154.660,113.855 153.040,113.737 152.600 C 113.511 151.765,112.138 147.984,111.557 146.600 C 103.937 128.439,107.721 116.276,121.000 116.252 C 125.985 116.243,127.320 116.867,131.600 121.208 C 133.250 122.882,136.670 125.782,139.200 127.653 C 141.730 129.525,144.846 131.973,146.125 133.095 L 148.449 135.134 150.712 134.133 C 152.721 133.245,155.303 132.680,162.200 131.620 L 164.200 131.313 161.800 131.274 C 160.480 131.253,158.680 131.495,157.800 131.812 C 156.920 132.129,155.480 132.392,154.600 132.396 C 153.720 132.401,152.546 132.642,151.991 132.932 C 148.654 134.673,148.472 134.631,144.824 131.267 C 144.268 130.754,143.315 130.040,142.706 129.681 C 142.098 129.322,141.600 128.886,141.600 128.714 C 141.600 128.541,141.370 128.400,141.089 128.400 C 140.808 128.400,140.296 128.085,139.951 127.700 C 139.607 127.315,138.916 126.730,138.416 126.400 C 136.231 124.958,133.223 122.573,133.212 122.274 C 133.190 121.672,129.279 118.123,127.469 117.061 C 125.481 115.897,120.463 115.354,117.400 115.972 M85.195 293.400 C 84.271 296.505,84.383 328.546,85.328 331.400 L 85.990 333.400 85.828 331.400 C 85.739 330.300,85.452 327.780,85.190 325.800 C 84.577 321.162,84.877 296.917,85.575 294.678 C 85.836 293.841,85.992 292.761,85.920 292.278 C 85.829 291.660,85.614 291.993,85.195 293.400 " stroke="none" fill="#a79a9a" fill-rule="evenodd"></path><path id="path4" d="M224.400 114.600 C 223.087 115.350,223.937 115.361,225.654 114.616 C 226.583 114.212,226.752 114.031,226.200 114.030 C 225.760 114.029,224.950 114.286,224.400 114.600 M230.346 114.616 C 232.075 115.366,232.771 115.365,231.776 114.613 C 231.349 114.290,230.550 114.027,230.000 114.028 C 229.090 114.031,229.121 114.084,230.346 114.616 M221.600 115.800 C 221.326 116.130,220.899 116.403,220.651 116.406 C 220.403 116.409,219.480 117.056,218.600 117.844 L 217.000 119.276 218.600 118.091 C 219.480 117.440,220.605 116.781,221.100 116.626 C 221.595 116.472,222.000 116.191,222.000 116.002 C 222.000 115.813,222.315 115.576,222.700 115.476 C 223.291 115.321,223.298 115.286,222.749 115.246 C 222.391 115.221,221.874 115.470,221.600 115.800 M233.193 115.496 C 233.519 115.624,234.008 115.925,234.279 116.164 C 234.550 116.404,235.093 116.855,235.486 117.167 C 237.588 118.836,237.670 118.821,235.853 117.100 C 234.750 116.055,233.567 115.214,233.224 115.232 C 232.692 115.259,232.687 115.297,233.193 115.496 M117.800 116.351 C 111.028 117.624,106.244 125.602,107.589 133.377 C 108.126 136.477,110.175 143.306,111.557 146.600 C 112.138 147.984,113.511 151.765,113.737 152.600 C 113.855 153.040,114.441 154.660,115.038 156.200 C 117.301 162.040,116.862 163.766,110.290 174.873 C 109.289 176.563,108.341 178.363,108.182 178.873 C 108.022 179.383,107.646 180.155,107.346 180.589 C 107.046 181.023,106.800 181.626,106.800 181.929 C 106.800 182.231,106.543 183.046,106.230 183.740 C 105.696 184.920,105.438 185.879,104.440 190.400 C 103.788 193.356,102.827 201.497,102.576 206.200 C 102.268 211.962,100.909 224.512,100.345 226.800 C 99.662 229.566,99.773 241.602,100.516 245.400 C 102.888 257.530,102.142 261.593,96.623 266.600 C 94.465 268.557,89.900 276.713,88.785 280.600 C 88.533 281.480,87.978 283.370,87.553 284.800 C 86.806 287.308,85.968 291.940,85.202 297.800 C 84.741 301.317,84.749 322.977,85.212 326.200 C 85.402 327.520,85.765 330.580,86.020 333.000 C 86.631 338.810,87.854 344.891,89.842 352.000 C 90.461 354.214,90.789 355.157,92.349 359.208 C 92.817 360.422,93.206 361.682,93.213 362.008 C 93.220 362.333,93.490 362.949,93.813 363.376 C 94.136 363.804,94.400 364.472,94.400 364.861 C 94.400 365.487,94.969 366.837,97.997 373.400 C 98.403 374.280,99.386 376.440,100.181 378.200 C 100.977 379.960,101.772 381.670,101.948 382.000 C 104.038 385.920,105.767 389.076,106.001 389.400 C 106.160 389.620,107.055 391.240,107.989 393.000 C 109.870 396.544,117.796 408.626,120.482 412.043 C 134.014 429.263,145.649 438.090,158.700 441.036 C 160.075 441.346,162.325 441.863,163.700 442.184 C 167.987 443.186,168.802 443.308,167.600 442.766 C 166.243 442.154,162.748 441.235,159.600 440.663 C 158.170 440.403,156.607 439.968,156.126 439.695 C 155.646 439.423,154.994 439.200,154.677 439.200 C 153.705 439.200,148.537 436.855,145.400 434.989 C 144.520 434.466,143.530 433.908,143.200 433.748 C 142.870 433.589,142.510 433.354,142.400 433.227 C 142.290 433.100,141.120 432.198,139.800 431.224 C 137.499 429.527,134.635 426.998,131.613 423.996 C 130.192 422.583,128.922 421.148,125.600 417.200 C 124.610 416.023,123.514 414.777,123.164 414.430 C 122.470 413.742,119.758 410.250,118.800 408.809 C 118.470 408.313,117.885 407.495,117.500 406.991 C 117.115 406.486,116.800 405.886,116.800 405.657 C 116.800 405.427,116.571 405.096,116.292 404.920 C 116.012 404.744,115.565 404.150,115.299 403.600 C 115.032 403.050,114.046 401.511,113.107 400.180 C 110.865 397.002,110.479 396.390,109.974 395.208 C 109.741 394.663,109.423 394.123,109.267 394.008 C 109.111 393.894,108.764 393.350,108.495 392.800 C 108.226 392.250,107.837 391.530,107.632 391.200 C 107.426 390.870,107.146 390.330,107.010 390.000 C 106.873 389.670,106.334 388.680,105.812 387.800 C 104.884 386.236,101.155 378.781,99.509 375.200 C 99.054 374.210,98.527 373.130,98.338 372.800 C 98.149 372.470,97.895 371.930,97.772 371.600 C 97.649 371.270,97.303 370.460,97.003 369.800 C 95.767 367.086,94.800 364.675,94.800 364.310 C 94.800 364.096,94.557 363.354,94.260 362.660 C 93.052 359.842,92.000 356.954,92.000 356.454 C 92.000 356.162,91.752 355.446,91.449 354.862 C 90.896 353.796,90.294 351.749,89.549 348.400 C 89.329 347.410,88.950 345.970,88.707 345.200 C 88.084 343.229,87.294 338.308,86.587 332.000 C 86.254 329.030,85.817 325.160,85.616 323.400 C 85.113 319.000,85.123 302.381,85.631 299.200 C 85.859 297.770,86.291 294.800,86.591 292.600 C 87.124 288.699,87.649 286.237,88.468 283.800 C 88.689 283.140,89.035 281.929,89.235 281.109 C 90.220 277.081,94.062 270.311,97.596 266.373 C 100.843 262.755,101.433 261.982,101.772 260.900 C 101.927 260.405,102.222 260.000,102.427 260.000 C 102.990 260.000,102.875 256.553,102.207 253.400 C 101.881 251.860,101.611 249.603,101.607 248.384 C 101.603 247.165,101.330 245.131,101.000 243.865 C 100.597 242.316,100.400 239.608,100.400 235.600 C 100.400 231.592,100.597 228.884,101.000 227.335 C 101.330 226.069,101.600 224.118,101.600 223.000 C 101.600 221.882,101.849 219.985,102.154 218.784 C 102.459 217.583,102.835 213.305,102.989 209.278 C 103.142 205.251,103.436 201.381,103.641 200.678 C 103.845 199.975,104.112 197.780,104.234 195.800 C 104.356 193.820,104.697 191.480,104.990 190.600 C 105.284 189.720,105.630 188.259,105.758 187.353 C 105.887 186.447,106.263 185.187,106.594 184.553 C 106.924 183.919,107.196 183.125,107.198 182.789 C 107.199 182.453,107.447 181.823,107.749 181.389 C 108.051 180.955,108.425 180.015,108.581 179.300 C 108.736 178.585,109.012 178.000,109.193 178.000 C 109.374 178.000,109.718 177.505,109.959 176.900 C 110.199 176.295,111.032 174.720,111.810 173.400 C 112.588 172.080,113.493 170.460,113.822 169.800 C 114.151 169.140,114.943 167.700,115.583 166.600 C 116.926 164.292,117.304 159.302,116.251 157.789 C 115.949 157.355,115.572 156.370,115.412 155.600 C 115.252 154.830,114.869 153.801,114.561 153.314 C 114.252 152.827,114.000 152.012,114.000 151.503 C 114.000 150.994,113.753 150.223,113.451 149.789 C 113.149 149.355,112.766 148.370,112.600 147.600 C 112.434 146.830,112.051 145.845,111.749 145.411 C 111.447 144.977,111.200 144.246,111.200 143.787 C 111.200 143.328,110.936 142.604,110.613 142.176 C 110.290 141.749,110.019 141.040,110.010 140.600 C 110.002 140.160,109.712 139.260,109.366 138.600 C 107.901 135.807,107.896 126.950,109.357 124.200 C 109.708 123.540,109.996 122.827,109.998 122.617 C 109.999 122.406,110.891 121.383,111.981 120.344 C 117.705 114.884,125.198 115.396,131.259 121.662 C 133.527 124.007,135.144 125.387,139.270 128.495 C 139.638 128.773,140.334 129.270,140.817 129.600 C 142.317 130.627,145.462 133.150,146.803 134.402 C 148.222 135.728,149.015 135.866,150.176 134.987 C 150.604 134.664,151.234 134.399,151.576 134.398 C 151.919 134.396,152.659 134.156,153.219 133.863 C 153.780 133.570,155.602 133.216,157.269 133.075 C 158.935 132.934,160.816 132.605,161.449 132.343 C 163.982 131.297,187.902 131.510,191.600 132.611 C 192.402 132.850,192.505 132.807,192.122 132.397 C 190.984 131.177,169.731 130.578,162.800 131.570 C 155.859 132.564,152.787 133.216,150.712 134.133 L 148.449 135.134 146.125 133.095 C 144.846 131.973,141.730 129.525,139.200 127.653 C 136.670 125.782,133.250 122.882,131.600 121.208 C 127.115 116.659,123.300 115.317,117.800 116.351 M213.043 122.700 C 211.189 124.625,207.683 128.270,205.254 130.800 C 201.212 135.009,200.767 135.357,200.024 134.900 C 199.577 134.625,198.983 134.401,198.705 134.402 C 198.427 134.404,198.716 134.674,199.346 135.002 C 199.976 135.331,200.617 135.600,200.771 135.600 C 201.117 135.600,204.954 131.835,208.353 128.160 C 209.756 126.642,212.272 124.005,213.943 122.300 C 215.614 120.595,216.854 119.200,216.698 119.200 C 216.543 119.200,214.898 120.775,213.043 122.700 M238.000 119.897 C 238.000 120.120,238.270 120.526,238.600 120.800 C 238.930 121.074,239.221 121.681,239.246 122.149 C 239.283 122.824,239.331 122.856,239.476 122.300 C 239.576 121.915,239.285 121.126,238.829 120.546 C 238.373 119.967,238.000 119.674,238.000 119.897 M239.839 124.800 C 239.976 125.570,240.220 127.910,240.382 130.000 L 240.677 133.800 240.708 130.000 C 240.728 127.546,240.536 125.704,240.164 124.800 L 239.590 123.400 239.839 124.800 M194.265 133.172 C 195.181 133.322,196.210 133.677,196.552 133.960 C 196.894 134.244,197.389 134.404,197.654 134.315 C 198.487 134.038,195.343 132.798,193.940 132.850 C 192.670 132.898,192.687 132.914,194.265 133.172 M240.290 148.300 C 239.573 151.512,239.545 152.327,240.212 150.600 C 240.553 149.720,240.775 148.550,240.706 148.000 C 240.592 147.088,240.555 147.114,240.290 148.300 M239.141 155.600 C 239.008 156.810,238.701 158.520,238.459 159.400 C 238.217 160.280,238.047 162.890,238.081 165.200 L 238.142 169.400 238.412 164.600 C 238.561 161.960,238.899 159.119,239.164 158.287 C 239.428 157.455,239.586 156.015,239.514 155.087 C 239.384 153.410,239.381 153.413,239.141 155.600 M237.720 174.400 C 237.720 175.610,237.795 176.105,237.887 175.500 C 237.978 174.895,237.978 173.905,237.887 173.300 C 237.795 172.695,237.720 173.190,237.720 174.400 M238.060 178.224 C 238.027 178.896,238.264 179.796,238.587 180.224 C 238.910 180.651,239.201 181.360,239.234 181.800 C 239.286 182.504,239.315 182.514,239.480 181.880 C 239.582 181.485,239.396 180.748,239.066 180.244 C 238.736 179.740,238.388 178.804,238.293 178.164 L 238.120 177.000 238.060 178.224 M240.800 186.039 C 240.800 186.373,241.064 186.996,241.387 187.424 C 241.710 187.851,242.005 188.650,242.042 189.200 C 242.095 189.997,242.141 190.037,242.266 189.400 C 242.353 188.960,242.058 187.887,241.612 187.015 C 241.165 186.144,240.800 185.705,240.800 186.039 M242.413 190.454 C 242.406 190.594,242.669 191.224,242.998 191.854 C 243.326 192.484,243.596 192.719,243.598 192.376 C 243.600 191.790,242.440 189.908,242.413 190.454 M243.613 194.024 C 243.620 194.341,243.890 194.949,244.213 195.376 C 244.536 195.804,244.800 196.534,244.800 197.000 C 244.800 197.466,245.064 198.196,245.387 198.624 C 245.710 199.051,246.001 199.760,246.034 200.200 C 246.081 200.845,246.127 200.869,246.271 200.324 C 246.369 199.952,246.189 199.232,245.870 198.724 C 245.551 198.216,245.174 197.170,245.032 196.400 C 244.761 194.923,243.589 192.962,243.613 194.024 M246.413 202.424 C 246.420 202.741,246.690 203.349,247.013 203.776 C 247.427 204.324,247.596 204.383,247.587 203.976 C 247.580 203.659,247.310 203.051,246.987 202.624 C 246.573 202.076,246.404 202.017,246.413 202.424 M247.618 206.140 C 247.608 206.546,247.860 207.446,248.177 208.140 C 248.494 208.833,248.842 209.850,248.950 210.400 C 249.058 210.950,249.087 210.770,249.015 210.000 C 248.865 208.395,247.644 205.022,247.618 206.140 M249.227 212.200 C 249.229 212.906,250.370 214.655,250.386 213.976 C 250.394 213.634,250.136 213.004,249.813 212.576 C 249.490 212.149,249.226 211.980,249.227 212.200 M250.414 216.326 C 250.406 216.616,250.617 217.246,250.882 217.726 C 251.147 218.207,251.483 219.410,251.628 220.400 L 251.893 222.200 251.933 220.600 C 251.955 219.720,251.625 218.280,251.200 217.400 C 250.775 216.520,250.421 216.037,250.414 216.326 M252.220 223.800 C 252.343 224.460,252.593 225.630,252.776 226.400 L 253.108 227.800 253.136 226.400 C 253.151 225.630,252.901 224.460,252.580 223.800 L 251.997 222.600 252.220 223.800 M253.351 235.200 C 253.351 237.730,253.416 238.765,253.496 237.500 C 253.575 236.235,253.575 234.165,253.496 232.900 C 253.416 231.635,253.351 232.670,253.351 235.200 M252.483 244.823 C 252.198 245.745,252.039 246.572,252.129 246.662 C 252.413 246.946,253.277 244.493,253.135 243.805 C 253.061 243.443,252.767 243.901,252.483 244.823 M251.714 249.400 C 251.717 250.500,251.795 250.903,251.887 250.295 C 251.979 249.686,251.977 248.786,251.882 248.295 C 251.787 247.803,251.711 248.300,251.714 249.400 M250.811 252.571 C 250.585 253.165,250.409 254.045,250.419 254.526 C 250.431 255.076,250.664 254.756,251.047 253.661 C 251.705 251.783,251.490 250.786,250.811 252.571 M249.700 258.759 C 249.019 260.976,249.097 261.711,249.832 260.015 C 250.163 259.253,250.381 258.292,250.317 257.879 C 250.243 257.409,250.014 257.737,249.700 258.759 M248.867 263.451 C 248.830 264.359,248.530 265.749,248.200 266.538 C 247.870 267.328,247.627 268.565,247.660 269.287 L 247.720 270.600 247.882 269.400 C 247.971 268.740,248.316 267.466,248.650 266.568 C 248.983 265.671,249.184 264.231,249.095 263.368 L 248.934 261.800 248.867 263.451 M246.900 273.046 C 246.232 275.247,246.273 275.653,247.020 274.221 C 247.358 273.572,247.582 272.672,247.517 272.221 C 247.436 271.650,247.248 271.901,246.900 273.046 M245.930 278.400 C 245.794 279.170,245.573 280.250,245.438 280.800 C 245.273 281.470,245.398 281.355,245.818 280.450 C 246.162 279.707,246.383 278.627,246.310 278.050 C 246.190 277.109,246.150 277.145,245.930 278.400 M244.870 283.501 C 244.827 284.555,245.105 285.771,245.600 286.696 C 246.040 287.516,246.400 287.916,246.400 287.583 C 246.400 287.250,246.142 286.610,245.826 286.159 C 245.511 285.709,245.182 284.544,245.096 283.570 L 244.940 281.800 244.870 283.501 M246.402 289.224 C 246.401 289.566,246.664 290.196,246.987 290.624 C 247.751 291.634,247.759 291.196,247.002 289.746 C 246.674 289.116,246.404 288.881,246.402 289.224 M247.646 292.646 C 247.621 293.111,248.166 294.101,248.857 294.846 L 250.114 296.200 249.103 294.787 C 248.547 294.010,248.002 293.020,247.893 292.587 C 247.705 291.849,247.690 291.853,247.646 292.646 M251.800 296.800 C 252.460 297.237,253.203 297.596,253.451 297.597 C 253.699 297.599,254.126 297.870,254.400 298.200 C 254.674 298.530,255.096 298.800,255.338 298.800 C 255.877 298.800,254.290 297.663,252.415 296.707 C 250.585 295.773,250.312 295.814,251.800 296.800 M258.909 300.800 C 259.469 301.240,260.064 301.600,260.232 301.600 C 260.400 301.600,260.911 301.915,261.369 302.300 C 262.199 302.999,262.199 302.999,261.438 302.100 C 261.019 301.605,260.456 301.200,260.187 301.200 C 259.918 301.200,259.474 300.930,259.200 300.600 C 258.926 300.270,258.520 300.000,258.297 300.000 C 258.074 300.000,258.350 300.360,258.909 300.800 M263.744 304.153 C 264.593 304.949,265.358 305.600,265.444 305.600 C 265.875 305.600,265.445 305.151,263.900 303.987 L 262.200 302.706 263.744 304.153 M270.134 309.798 C 272.517 312.214,274.761 314.687,275.120 315.295 C 275.479 315.903,275.935 316.400,276.134 316.400 C 276.924 316.400,269.731 308.405,267.213 306.485 C 266.437 305.892,267.751 307.383,270.134 309.798 M277.600 318.689 C 277.600 318.921,277.971 319.536,278.424 320.056 L 279.247 321.000 278.545 319.800 C 277.620 318.221,277.600 318.197,277.600 318.689 M282.000 327.447 C 282.000 327.667,282.264 328.196,282.587 328.624 C 282.910 329.051,283.175 329.220,283.175 329.000 C 283.175 328.780,282.910 328.251,282.587 327.824 C 282.264 327.396,282.000 327.227,282.000 327.447 M283.613 332.220 C 283.606 332.451,283.765 332.811,283.966 333.020 C 284.168 333.229,284.413 333.850,284.512 334.400 L 284.691 335.400 284.746 334.376 C 284.775 333.814,284.536 333.004,284.213 332.576 C 283.890 332.149,283.620 331.989,283.613 332.220 M284.822 336.800 C 284.816 337.130,285.071 338.120,285.388 339.000 C 285.761 340.035,285.971 340.298,285.982 339.746 C 285.992 339.276,285.737 338.286,285.416 337.546 C 285.094 336.806,284.827 336.470,284.822 336.800 M286.018 343.203 C 286.008 343.534,286.201 344.434,286.448 345.203 C 286.694 345.971,287.040 348.040,287.216 349.800 L 287.537 353.000 287.392 349.400 C 287.274 346.469,286.079 341.083,286.018 343.203 M287.853 355.000 C 287.997 355.880,288.239 358.040,288.390 359.800 L 288.665 363.000 288.702 359.600 C 288.725 357.480,288.523 355.673,288.165 354.800 L 287.590 353.400 287.853 355.000 M315.113 371.095 C 316.276 371.176,318.076 371.176,319.113 371.093 C 320.151 371.011,319.200 370.945,317.000 370.946 C 314.800 370.947,313.951 371.014,315.113 371.095 M308.576 371.787 C 308.149 372.110,307.989 372.380,308.220 372.387 C 308.451 372.394,308.811 372.234,309.020 372.031 C 309.229 371.828,309.940 371.585,310.600 371.491 L 311.800 371.320 310.576 371.260 C 309.904 371.227,309.004 371.464,308.576 371.787 M323.800 371.591 C 324.460 371.762,325.360 372.028,325.800 372.183 C 326.589 372.461,326.589 372.456,325.824 371.833 C 325.396 371.485,324.496 371.218,323.824 371.241 L 322.600 371.282 323.800 371.591 M288.317 375.000 C 288.161 376.100,287.927 377.540,287.798 378.200 C 287.568 379.368,287.579 379.362,288.199 378.011 C 288.570 377.203,288.787 375.863,288.718 374.811 L 288.600 373.000 288.317 375.000 M332.200 374.800 C 333.760 375.833,334.405 375.833,333.091 374.800 C 332.531 374.360,331.832 374.001,331.537 374.003 C 331.242 374.004,331.540 374.363,332.200 374.800 M300.189 376.987 C 299.384 377.970,298.817 379.005,298.931 379.287 C 299.097 379.702,299.143 379.701,299.168 379.283 C 299.201 378.750,299.323 378.578,301.006 376.679 C 301.553 376.063,302.000 375.478,302.000 375.379 C 302.000 374.928,301.547 375.330,300.189 376.987 M334.417 375.919 C 334.426 376.073,335.044 376.589,335.791 377.064 C 336.537 377.539,337.066 377.719,336.967 377.464 C 336.760 376.930,334.391 375.494,334.417 375.919 M337.616 378.025 C 337.607 378.149,338.635 379.337,339.900 380.665 C 341.165 381.993,342.515 383.503,342.900 384.021 C 343.285 384.539,343.600 384.760,343.600 384.512 C 343.600 384.058,337.647 377.604,337.616 378.025 M287.301 381.000 C 287.305 381.880,287.387 382.193,287.483 381.695 C 287.579 381.198,287.575 380.478,287.475 380.095 C 287.375 379.713,287.296 380.120,287.301 381.000 M298.065 381.417 C 297.382 382.915,297.501 386.445,298.267 387.400 L 298.908 388.200 298.610 387.400 C 298.008 385.784,297.908 383.187,298.403 381.994 C 299.019 380.506,298.716 379.988,298.065 381.417 M286.432 383.539 C 286.195 383.984,286.001 384.584,286.002 384.874 C 286.004 385.163,286.277 384.878,286.610 384.240 C 286.942 383.603,287.136 383.002,287.040 382.906 C 286.943 382.810,286.670 383.095,286.432 383.539 M284.973 386.998 C 284.558 387.769,284.113 388.400,283.984 388.400 C 283.856 388.400,283.333 388.985,282.822 389.700 L 281.894 391.000 283.261 389.600 C 284.761 388.064,286.160 386.027,285.896 385.763 C 285.804 385.671,285.389 386.226,284.973 386.998 M344.801 386.856 C 344.801 386.997,345.156 387.897,345.591 388.856 C 346.026 389.815,346.386 390.289,346.391 389.910 C 346.396 389.530,346.041 388.630,345.601 387.910 C 345.162 387.189,344.802 386.715,344.801 386.856 M298.800 389.344 C 298.800 390.835,304.237 395.905,305.346 395.449 C 305.638 395.330,305.612 395.252,305.273 395.232 C 304.399 395.179,301.955 393.119,300.331 391.064 C 299.489 389.999,298.800 389.225,298.800 389.344 M280.300 392.579 C 279.695 393.337,279.200 394.071,279.200 394.209 C 279.200 394.348,279.692 393.863,280.294 393.131 C 280.895 392.399,281.570 391.668,281.794 391.506 C 282.059 391.314,282.061 391.210,281.800 391.206 C 281.580 391.203,280.905 391.820,280.300 392.579 M346.402 391.854 C 346.398 392.595,347.567 395.059,347.584 394.346 C 347.593 393.986,347.331 393.176,347.002 392.546 C 346.674 391.916,346.404 391.604,346.402 391.854 M315.500 395.489 C 316.215 395.578,317.385 395.578,318.100 395.489 C 318.815 395.401,318.230 395.328,316.800 395.328 C 315.370 395.328,314.785 395.401,315.500 395.489 M306.976 396.167 C 307.963 396.971,311.816 396.991,313.200 396.200 C 313.835 395.837,313.973 395.623,313.580 395.614 C 313.239 395.606,312.762 395.798,312.521 396.039 C 312.055 396.505,308.390 396.373,307.000 395.841 C 306.212 395.539,306.211 395.544,306.976 396.167 M347.714 397.800 C 347.717 398.900,347.795 399.303,347.887 398.695 C 347.979 398.086,347.977 397.186,347.882 396.695 C 347.787 396.203,347.711 396.700,347.714 397.800 M322.062 399.000 C 321.985 400.698,320.246 402.593,316.842 404.688 C 316.049 405.176,315.611 405.581,315.869 405.588 C 316.396 405.602,319.607 403.246,321.327 401.585 C 322.265 400.678,322.427 400.236,322.294 398.948 L 322.134 397.400 322.062 399.000 M275.600 401.800 C 275.317 402.141,275.176 402.509,275.286 402.619 C 275.396 402.729,275.717 402.541,276.000 402.200 C 276.283 401.859,276.424 401.491,276.314 401.381 C 276.204 401.271,275.883 401.459,275.600 401.800 M346.866 403.139 C 346.579 404.095,346.423 404.956,346.518 405.052 C 346.823 405.357,347.676 402.892,347.529 402.132 C 347.441 401.675,347.192 402.054,346.866 403.139 M274.533 404.229 C 274.281 404.763,274.226 405.200,274.411 405.200 C 274.758 405.200,275.381 403.647,275.132 403.399 C 275.055 403.322,274.785 403.695,274.533 404.229 M345.653 407.697 C 345.354 408.414,344.761 409.697,344.336 410.548 C 343.911 411.399,343.637 412.171,343.728 412.262 C 343.987 412.520,346.494 407.283,346.338 406.813 C 346.261 406.582,345.953 406.980,345.653 407.697 M272.800 407.400 C 272.517 407.741,272.376 408.109,272.486 408.219 C 272.596 408.329,272.917 408.141,273.200 407.800 C 273.483 407.459,273.624 407.091,273.514 406.981 C 273.404 406.871,273.083 407.059,272.800 407.400 M312.183 407.228 C 312.037 407.463,311.532 407.812,311.059 408.003 C 310.472 408.240,310.402 408.357,310.839 408.375 C 311.190 408.389,311.893 408.040,312.400 407.600 C 312.907 407.160,313.125 406.800,312.885 406.800 C 312.644 406.800,312.328 406.993,312.183 407.228 M271.462 409.531 C 271.098 409.934,270.800 410.403,270.800 410.574 C 270.800 410.745,270.243 411.631,269.562 412.542 L 268.324 414.200 269.756 412.600 C 270.544 411.720,271.191 410.834,271.194 410.631 C 271.197 410.429,271.498 409.934,271.862 409.531 C 272.226 409.129,272.434 408.800,272.324 408.800 C 272.214 408.800,271.826 409.129,271.462 409.531 M307.021 409.965 C 306.897 410.166,305.977 410.727,304.977 411.211 C 303.977 411.695,303.236 412.169,303.331 412.264 C 303.549 412.482,306.819 410.808,307.529 410.116 C 307.819 409.832,307.875 409.600,307.652 409.600 C 307.429 409.600,307.146 409.764,307.021 409.965 M298.976 414.187 C 298.549 414.510,297.750 414.805,297.200 414.842 C 296.310 414.902,296.295 414.928,297.059 415.077 C 297.532 415.169,298.609 414.875,299.454 414.423 C 300.298 413.970,300.710 413.600,300.371 413.600 C 300.031 413.600,299.404 413.864,298.976 414.187 M267.291 415.749 C 265.613 418.198,265.878 418.410,270.500 418.318 L 274.600 418.235 271.136 418.103 C 267.058 417.946,266.346 417.485,267.644 415.835 C 268.110 415.243,268.422 414.688,268.337 414.603 C 268.252 414.518,267.781 415.034,267.291 415.749 M341.711 414.900 C 340.929 415.911,340.663 416.532,341.136 416.240 C 341.610 415.947,342.557 414.400,342.263 414.400 C 342.172 414.400,341.924 414.625,341.711 414.900 M294.400 415.800 C 293.759 416.166,293.624 416.377,294.024 416.386 C 294.366 416.394,294.996 416.136,295.424 415.813 C 296.418 415.061,295.709 415.052,294.400 415.800 M287.600 416.902 C 287.050 417.150,284.260 417.465,281.400 417.604 L 276.200 417.855 280.886 417.927 C 284.062 417.977,286.124 417.816,287.286 417.428 C 288.229 417.113,289.540 416.780,290.200 416.688 C 291.334 416.529,291.323 416.518,290.000 416.485 C 289.230 416.466,288.150 416.654,287.600 416.902 M338.931 418.327 C 336.807 420.446,330.739 425.091,329.458 425.578 C 328.876 425.799,328.400 426.156,328.400 426.371 C 328.400 426.786,330.697 425.703,331.390 424.961 C 331.615 424.720,333.330 423.342,335.200 421.898 C 338.415 419.416,341.241 416.800,340.706 416.800 C 340.571 416.800,339.773 417.487,338.931 418.327 M326.000 427.600 C 325.493 428.040,325.275 428.400,325.515 428.400 C 325.756 428.400,326.072 428.207,326.217 427.972 C 326.363 427.737,326.868 427.388,327.341 427.197 C 327.928 426.960,327.998 426.843,327.561 426.825 C 327.210 426.811,326.507 427.160,326.000 427.600 M323.600 429.000 C 323.322 429.335,323.279 429.600,323.502 429.600 C 323.722 429.600,324.126 429.330,324.400 429.000 C 324.678 428.665,324.721 428.400,324.498 428.400 C 324.278 428.400,323.874 428.670,323.600 429.000 M321.000 430.400 C 320.340 430.837,319.980 431.195,320.200 431.195 C 320.420 431.195,321.140 430.837,321.800 430.400 C 322.460 429.963,322.820 429.605,322.600 429.605 C 322.380 429.605,321.660 429.963,321.000 430.400 M316.257 433.000 C 315.927 433.330,315.419 433.601,315.129 433.603 C 314.838 433.604,314.060 433.963,313.400 434.400 C 312.628 434.912,312.432 435.196,312.851 435.197 C 313.209 435.199,313.726 434.930,314.000 434.600 C 314.274 434.270,314.763 434.000,315.086 434.000 C 315.409 434.000,316.131 433.640,316.691 433.200 C 317.250 432.760,317.516 432.400,317.283 432.400 C 317.049 432.400,316.587 432.670,316.257 433.000 M307.780 437.161 C 307.571 437.360,307.040 437.609,306.600 437.715 C 305.841 437.897,305.844 437.910,306.651 437.954 C 307.119 437.979,307.726 437.730,308.000 437.400 C 308.543 436.746,308.391 436.581,307.780 437.161 M303.424 438.613 C 302.876 439.027,302.817 439.196,303.224 439.187 C 303.541 439.180,304.149 438.910,304.576 438.587 C 305.124 438.173,305.183 438.004,304.776 438.013 C 304.459 438.020,303.851 438.290,303.424 438.613 M232.176 439.787 C 231.166 440.551,231.604 440.559,233.054 439.802 C 233.684 439.474,233.919 439.204,233.576 439.202 C 233.234 439.201,232.604 439.464,232.176 439.787 M243.000 440.000 C 243.660 440.437,244.650 440.771,245.200 440.743 L 246.200 440.691 245.211 440.506 C 244.668 440.404,243.862 440.069,243.422 439.761 C 242.982 439.452,242.437 439.201,242.211 439.203 C 241.985 439.204,242.340 439.563,243.000 440.000 M299.400 439.786 C 297.782 440.526,298.753 440.554,300.454 439.816 C 301.194 439.494,301.530 439.232,301.200 439.234 C 300.870 439.235,300.060 439.483,299.400 439.786 M294.900 440.687 C 295.505 440.778,296.495 440.778,297.100 440.687 C 297.705 440.595,297.210 440.520,296.000 440.520 C 294.790 440.520,294.295 440.595,294.900 440.687 M226.800 441.433 C 226.244 441.742,226.067 441.985,226.400 441.980 C 226.730 441.975,227.450 441.714,228.000 441.400 C 228.550 441.086,228.730 440.840,228.400 440.853 C 228.070 440.867,227.350 441.128,226.800 441.433 M246.976 441.367 C 247.404 441.715,248.304 441.982,248.976 441.959 L 250.200 441.918 249.000 441.609 C 248.340 441.438,247.440 441.172,247.000 441.017 C 246.211 440.739,246.211 440.744,246.976 441.367 M290.200 441.411 C 288.845 441.858,288.762 441.943,289.654 441.969 C 290.234 441.986,291.314 441.737,292.054 441.416 C 293.759 440.675,292.442 440.672,290.200 441.411 M222.400 442.600 C 221.087 443.350,221.937 443.361,223.654 442.616 C 224.583 442.212,224.752 442.031,224.200 442.030 C 223.760 442.029,222.950 442.286,222.400 442.600 M254.600 442.630 C 256.371 443.324,277.274 443.184,283.000 442.440 C 285.051 442.173,284.249 442.146,280.000 442.338 C 272.166 442.692,257.022 442.670,254.800 442.301 L 253.000 442.003 254.600 442.630 M169.900 443.489 C 170.615 443.578,171.785 443.578,172.500 443.489 C 173.215 443.401,172.630 443.328,171.200 443.328 C 169.770 443.328,169.185 443.401,169.900 443.489 M218.105 443.487 C 218.714 443.579,219.614 443.577,220.105 443.482 C 220.597 443.387,220.100 443.311,219.000 443.314 C 217.900 443.317,217.497 443.395,218.105 443.487 M174.539 444.015 C 174.945 444.272,176.385 444.545,177.739 444.620 C 180.018 444.747,180.067 444.733,178.400 444.431 C 177.410 444.251,175.970 443.978,175.200 443.825 C 174.040 443.595,173.927 443.627,174.539 444.015 M215.050 443.883 C 214.894 444.039,213.919 444.285,212.883 444.430 L 211.000 444.693 212.800 444.729 C 214.631 444.765,217.900 443.700,216.167 443.632 C 215.708 443.615,215.206 443.728,215.050 443.883 M187.535 445.468 C 191.004 446.078,201.571 446.082,204.440 445.474 C 206.372 445.065,205.178 445.000,195.775 445.000 C 186.192 445.000,185.193 445.057,187.535 445.468 " stroke="none" fill="#747474" fill-rule="evenodd"></path></g></svg>